<svg id="Layer_1" data-name="Layer 1" xmlns="http://www.w3.org/2000/svg" viewBox="0 0 154.35 101.03"><defs><style>.cls-1{fill:#fff;}.cls-2{font-size:22px;stroke:#000;stroke-miterlimit:10;stroke-width:0.25px;font-family:GTAmericav2-CompressedUltraLightItalic, GT America v2;font-style:italic;}.cls-3{letter-spacing:0.01em;}.cls-4{letter-spacing:0em;}.cls-5{letter-spacing:0em;}</style></defs><title>UCC</title><path class="cls-1" d="M161,203.41a5.89,5.89,0,0,1-4.19-1.74l-44.51-44.51a5.93,5.93,0,0,1,0-8.38l44.51-44.51a5.92,5.92,0,0,1,8.38,0l44.51,44.51a5.92,5.92,0,0,1,0,8.38l-44.51,44.51A5.88,5.88,0,0,1,161,203.41Z" transform="translate(-110.45 -102.45)"/><path d="M161,102.6a5.81,5.81,0,0,1,4.14,1.71l44.51,44.51a5.85,5.85,0,0,1,0,8.27L165.1,201.62a5.85,5.85,0,0,1-8.27,0L112.32,157.1a5.85,5.85,0,0,1,0-8.27l44.51-44.51A5.81,5.81,0,0,1,161,102.6m0-.15a6,6,0,0,0-4.24,1.76l-44.51,44.51a6,6,0,0,0,0,8.49l44.51,44.51a6,6,0,0,0,8.49,0l44.51-44.51a6,6,0,0,0,0-8.49l-44.51-44.51a6,6,0,0,0-4.24-1.76Z" transform="translate(-110.45 -102.45)"/><path class="cls-1" d="M161,199a5.46,5.46,0,0,1-3.89-1.61l-40.51-40.51a5.51,5.51,0,0,1,0-7.78l40.51-40.51a5.5,5.5,0,0,1,7.78,0l40.51,40.51a5.5,5.5,0,0,1,0,7.78l-40.51,40.51A5.46,5.46,0,0,1,161,199Z" transform="translate(-110.45 -102.45)"/><path d="M161,107.45a5,5,0,0,1,3.54,1.46L205,149.43a5,5,0,0,1,0,7.07L164.5,197a5,5,0,0,1-7.07,0L116.92,156.5a5,5,0,0,1,0-7.07l40.51-40.51a5,5,0,0,1,3.54-1.46m0-1a6,6,0,0,0-4.24,1.76l-40.51,40.51a6,6,0,0,0,0,8.49l40.51,40.51a6,6,0,0,0,8.49,0l40.51-40.51a6,6,0,0,0,0-8.49l-40.51-40.51a6,6,0,0,0-4.24-1.76Z" transform="translate(-110.45 -102.45)"/><text class="cls-2" transform="translate(15.05 57.81)">UnderCon<tspan class="cls-3" x="58.94" y="0">s</tspan><tspan class="cls-4" x="65.16" y="0">tru</tspan><tspan class="cls-5" x="81.75" y="0">c</tspan><tspan x="88.5" y="0">tionClub</tspan></text></svg>